<?xml version="1.0" encoding="UTF-8"?>
<!DOCTYPE svg PUBLIC "-//W3C//DTD SVG 1.1//EN" "http://www.w3.org/Graphics/SVG/1.1/DTD/svg11.dtd">
<!-- Creator: CorelDRAW -->
<svg xmlns="http://www.w3.org/2000/svg" xml:space="preserve" width="236px" height="295px" style="shape-rendering:geometricPrecision; text-rendering:geometricPrecision; image-rendering:optimizeQuality; fill-rule:evenodd; clip-rule:evenodd"
viewBox="0 0 2149.56 2686.95"
 xmlns:xlink="http://www.w3.org/1999/xlink">
 <defs>
  <style type="text/css">
   <![CDATA[
    .str2 {stroke:white;stroke-width:8.18982}
    .str1 {stroke:#6699FF;stroke-width:21.4956}
    .str0 {stroke:#99FF00;stroke-width:21.4956}
    .fil16 {fill:#00CCFF;fill-rule:nonzero}
    .fil19 {fill:#7D7D7D;fill-rule:nonzero}
    .fil15 {fill:#8D8D8D;fill-rule:nonzero}
    .fil17 {fill:#CCCCCC;fill-rule:nonzero}
    .fil0 {fill:#FEFEFE;fill-rule:nonzero}
    .fil32 {fill:white;fill-rule:nonzero}
    .fil2 {fill:#8D8D8D;fill-rule:nonzero;fill-opacity:0.000000}
    .fil31 {fill:#A7A7A7;fill-rule:nonzero;fill-opacity:0.000000}
    .fil3 {fill:#8D8D8D;fill-rule:nonzero;fill-opacity:0.078431}
    .fil30 {fill:#A3A3A3;fill-rule:nonzero;fill-opacity:0.078431}
    .fil4 {fill:#8D8D8D;fill-rule:nonzero;fill-opacity:0.152941}
    .fil29 {fill:#A0A0A0;fill-rule:nonzero;fill-opacity:0.152941}
    .fil5 {fill:#8D8D8D;fill-rule:nonzero;fill-opacity:0.231373}
    .fil28 {fill:#9E9E9E;fill-rule:nonzero;fill-opacity:0.231373}
    .fil6 {fill:#8D8D8D;fill-rule:nonzero;fill-opacity:0.305882}
    .fil27 {fill:#989898;fill-rule:nonzero;fill-opacity:0.305882}
    .fil7 {fill:#8D8D8D;fill-rule:nonzero;fill-opacity:0.384314}
    .fil26 {fill:#979797;fill-rule:nonzero;fill-opacity:0.384314}
    .fil8 {fill:#8D8D8D;fill-rule:nonzero;fill-opacity:0.462745}
    .fil25 {fill:#929292;fill-rule:nonzero;fill-opacity:0.462745}
    .fil9 {fill:#8D8D8D;fill-rule:nonzero;fill-opacity:0.537255}
    .fil24 {fill:#8F8F8F;fill-rule:nonzero;fill-opacity:0.537255}
    .fil10 {fill:#8D8D8D;fill-rule:nonzero;fill-opacity:0.615686}
    .fil23 {fill:#8A8A8A;fill-rule:nonzero;fill-opacity:0.694118}
    .fil11 {fill:#8D8D8D;fill-rule:nonzero;fill-opacity:0.694118}
    .fil22 {fill:#868686;fill-rule:nonzero;fill-opacity:0.768627}
    .fil12 {fill:#8D8D8D;fill-rule:nonzero;fill-opacity:0.768627}
    .fil21 {fill:#838383;fill-rule:nonzero;fill-opacity:0.847059}
    .fil13 {fill:#8D8D8D;fill-rule:nonzero;fill-opacity:0.847059}
    .fil20 {fill:#7F7F7F;fill-rule:nonzero;fill-opacity:0.921569}
    .fil14 {fill:#8D8D8D;fill-rule:nonzero;fill-opacity:0.921569}
    .fil1 {fill:url(#id0)}
    .fil18 {fill:url(#id1);fill-rule:nonzero}
   ]]>
  </style>
  <linearGradient id="id0" gradientUnits="userSpaceOnUse" x1="-660.892" y1="5338.73" x2="1488.66" y2="5338.73">
   <stop offset="0" style="stop-color:#0FA89D"/>
   <stop offset="1" style="stop-color:#B6D66D"/>
  </linearGradient>
  <linearGradient id="id1" gradientUnits="userSpaceOnUse" x1="1612.21" y1="940.034" x2="303.604" y2="940.034">
   <stop offset="0" style="stop-color:#F8F7EC"/>
   <stop offset="1" style="stop-color:#7F7F7D"/>
  </linearGradient>
 </defs>
<symbol id="Fm2-8-0" viewBox="3826.76 3459.13 2149.56 189.473">
 <path class="fil0" d="M5976.32 3585.05c0,35.0915 -28.4494,63.5517 -63.5302,63.5517l-2022.48 0c-35.0915,0 -63.5517,-28.4494 -63.5517,-63.5517l0 -62.3802c0,-35.0808 28.4602,-63.5409 63.5517,-63.5409l2022.48 0c35.0915,0 63.5302,28.4602 63.5302,63.5409l0 62.3802z"/>
</symbol>
<symbol id="Fm3-10-0" viewBox="18663.7 -1199.85 2149.57 509.392">
 <path class="fil0" d="M20785.9 -1199.85l-627.746 0 -38.1224 0 -1432.51 0c-7.45897,0 -23.7419,11.7581 -23.7419,19.1526l0 482.533c0,7.43747 16.2829,7.70617 23.7419,7.70617l1432.51 0 38.1224 0 627.746 0c7.43747,0 27.4499,-11.7581 27.4499,-19.1526l0 -482.533c0,-7.43747 -20.0124,-7.70617 -27.4499,-7.70617z"/>
</symbol>
<symbol id="Fm1-6-0" viewBox="-660.892 4783.85 2149.55 1109.75">
 <polygon class="fil1" points="-660.892,5893.61 1488.66,5893.61 1488.66,4783.85 -660.892,4783.85 "/>
</symbol>
 <g id="Capa_x0020_1">
  <metadata id="CorelCorpID_0Corel-Layer"/>
  <g id="_280734752">
   <path id="_280735712" class="fil2" d="M2149.56 1162.98c0,810.33 -1143.59,1522.55 -1143.59,1522.55 0,0 -784.922,-798.013 -784.922,-1526.1 0,-539.765 423.141,-1087.36 943.936,-1087.36 520.827,0 984.573,551.147 984.573,1090.91z"/>
   <path id="_280735640" class="fil3" d="M2129.54 1149.41c0,810.33 -1128.13,1534.18 -1128.13,1534.18 0,0 -797.088,-809.373 -797.088,-1537.45 0,-539.765 423.055,-1078.9 943.871,-1078.9 520.827,0 981.349,542.409 981.349,1082.16z"/>
   <path id="_280735568" class="fil4" d="M2109.53 1135.87c0,810.319 -1112.73,1545.76 -1112.73,1545.76 0,0 -809.223,-820.68 -809.223,-1548.78 0,-539.754 422.947,-1070.42 943.774,-1070.42 520.816,0 978.178,533.671 978.178,1073.44z"/>
   <path id="_280735496" class="fil5" d="M2089.52 1122.3c0,810.33 -1097.3,1557.38 -1097.3,1557.38 0,0 -821.4,-831.997 -821.4,-1560.07 0,-539.776 422.904,-1061.96 943.71,-1061.96 520.816,0 974.986,524.911 974.986,1064.65z"/>
   <path id="_280735424" class="fil6" d="M2069.53 1108.76c0,810.319 -1081.9,1568.94 -1081.9,1568.94 0,0 -833.566,-843.325 -833.566,-1571.39 0,-539.786 422.829,-1053.49 943.656,-1053.49 520.838,0 971.815,516.163 971.815,1055.94z"/>
   <path id="_280735352" class="fil7" d="M2049.49 1095.2c0,810.33 -1066.46,1580.55 -1066.46,1580.55 0,0 -845.69,-854.643 -845.69,-1582.72 0,-539.776 422.743,-1045.03 943.559,-1045.03 520.816,0 968.591,507.446 968.591,1047.2z"/>
   <path id="_280735280" class="fil8" d="M2029.47 1081.65c0,810.34 -1051.03,1592.15 -1051.03,1592.15 0,0 -857.878,-865.96 -857.878,-1594.06 0,-539.765 422.711,-1036.55 943.527,-1036.55 520.795,0 965.377,498.698 965.377,1038.46z"/>
   <path id="_280735208" class="fil9" d="M2009.47 1068.09c0,810.319 -1035.6,1603.75 -1035.6,1603.75 0,0 -870.044,-877.299 -870.044,-1605.39 0,-539.765 422.614,-1028.08 943.43,-1028.08 520.838,0 962.218,489.96 962.218,1029.71z"/>
   <path id="_280735136" class="fil10" d="M1989.46 1054.54c0,810.33 -1020.19,1615.33 -1020.19,1615.33 0,0 -882.189,-888.606 -882.189,-1616.69 0,-539.776 422.539,-1019.61 943.355,-1019.61 520.838,0 959.025,481.222 959.025,1020.98z"/>
   <path id="_280735064" class="fil11" d="M1969.44 1040.98c0,810.319 -1004.76,1626.95 -1004.76,1626.95 0,0 -894.345,-899.934 -894.345,-1628.03 0,-539.765 422.485,-1011.13 943.301,-1011.13 520.806,0 955.801,472.473 955.801,1012.22z"/>
   <path id="_280734992" class="fil12" d="M1949.45 1027.44c0,810.319 -989.345,1638.53 -989.345,1638.53 0,0 -906.522,-911.241 -906.522,-1639.36 0,-539.754 422.41,-1002.67 943.226,-1002.67 520.838,0 952.641,463.735 952.641,1003.5z"/>
   <path id="_280734920" class="fil13" d="M1929.43 1013.88c0,810.319 -973.911,1650.12 -973.911,1650.12 0,0 -918.678,-922.569 -918.678,-1650.68 0,-539.743 422.334,-994.192 943.14,-994.192 520.838,0 949.449,454.997 949.449,994.751z"/>
   <path id="_280734848" class="fil14" d="M1909.43 1000.32c0,810.34 -958.531,1661.73 -958.531,1661.73 0,0 -930.802,-933.886 -930.802,-1661.98 0,-539.776 422.238,-985.744 943.065,-985.744 520.816,0 946.268,446.248 946.268,986.002z"/>
   <path id="_280734800" class="fil15" d="M1889.41 986.765c0,810.319 -943.086,1673.35 -943.086,1673.35 0,0 -942.99,-945.225 -942.99,-1673.35 0,-539.754 422.195,-977.264 943.011,-977.264 520.838,0 943.065,437.51 943.065,977.264z"/>
  </g>
  <path class="fil16 str0" d="M1900.94 992.687c0,810.297 -943.054,1673.33 -943.054,1673.33 0,0 -943.022,-945.257 -943.022,-1673.33 0,-539.776 422.216,-977.275 943.033,-977.275 520.827,0 943.043,437.5 943.043,977.275z"/>
  <path class="fil17" d="M957.445 2686.95l-9.90946 -9.87722c-38.6706,-38.7673 -947.536,-958.112 -947.536,-1684.38 0,-547.364 429.707,-992.687 957.897,-992.687 528.168,0 957.897,445.324 957.897,992.687 0,807.911 -938.562,1676.16 -948.009,1684.85l-10.3394 9.41507zm0.451407 -2656.13l0 0c-511.767,0 -928.158,431.492 -928.158,961.874 0,673.252 828.031,1548.33 928.577,1652.11 102.34,-97.0096 927.771,-903.545 927.771,-1652.11 0,-530.382 -416.369,-961.874 -928.19,-961.874z"/>
  <path class="fil18" d="M1612.21 940.045c0,374.485 -292.92,678.024 -654.315,678.024 -361.362,0 -654.304,-303.539 -654.304,-678.024 0,-374.475 292.942,-678.057 654.304,-678.057 361.394,0 654.315,303.582 654.315,678.057z"/>
  <path class="fil17" d="M957.897 1633.48c-368.993,0 -669.157,-311.073 -669.157,-693.437 0,-382.353 300.164,-693.458 669.157,-693.458 369.004,0 669.2,311.106 669.2,693.458 0,382.363 -300.197,693.437 -669.2,693.437zm0 -1356.05l0 0c-352.571,0 -639.375,297.219 -639.375,662.623 0,365.414 286.805,662.612 639.375,662.612 352.603,0 639.429,-297.198 639.429,-662.612 0,-365.403 -286.826,-662.623 -639.429,-662.623z"/>
  <g id="_280733456">
   <path id="_280734392" class="fil19" d="M443.97 1024.31c0,-358.073 283.742,-648.339 633.765,-648.339 113.099,0 219.18,30.427 311.041,83.4888 -113.239,-108.22 -265.212,-174.598 -432.459,-174.598 -350.023,0 -633.765,290.287 -633.765,648.361 0,242.384 130.081,453.557 322.67,564.818 -123.782,-118.333 -201.252,-286.708 -201.252,-473.73z"/>
   <path id="_280734320" class="fil20" d="M447.656 1026.61c0,-358.063 283.752,-648.339 633.765,-648.339 113.099,0 219.18,30.427 311.052,83.5103 -113.249,-108.241 -265.234,-174.609 -432.47,-174.609 -350.023,0 -633.765,290.276 -633.765,648.361 0,242.406 130.081,453.578 322.681,564.829 -123.782,-118.344 -201.263,-286.708 -201.263,-473.752z"/>
   <path id="_280734248" class="fil21" d="M451.364 1028.93c0,-358.052 283.731,-648.328 633.765,-648.328 113.099,0 219.137,30.427 311.052,83.4888 -113.271,-108.23 -265.245,-174.609 -432.491,-174.609 -350.013,0 -633.765,290.287 -633.765,648.371 0,242.384 130.102,453.546 322.702,564.818 -123.793,-118.344 -201.263,-286.719 -201.263,-473.741z"/>
   <path id="_280734176" class="fil22" d="M455.051 1031.25c0,-358.073 283.731,-648.35 633.776,-648.35 113.088,0 219.158,30.4377 311.041,83.4996 -113.271,-108.23 -265.245,-174.598 -432.47,-174.598 -350.023,0 -633.797,290.287 -633.797,648.361 0,242.384 130.124,453.557 322.713,564.818 -123.782,-118.344 -201.263,-286.708 -201.263,-473.73z"/>
   <path id="_280734104" class="fil23" d="M458.748 1033.56c0,-358.063 283.72,-648.35 633.765,-648.35 113.099,0 219.158,30.4377 311.041,83.5103 -113.239,-108.241 -265.245,-174.598 -432.459,-174.598 -350.023,0 -633.787,290.276 -633.787,648.35 0,242.395 130.113,453.578 322.692,564.829 -123.761,-118.344 -201.252,-286.73 -201.252,-473.741z"/>
   <path id="_280734032" class="fil10" d="M462.456 1035.87c0,-358.063 283.72,-648.339 633.744,-648.339 113.121,0 219.158,30.4377 311.063,83.4996 -113.26,-108.241 -265.245,-174.609 -432.491,-174.609 -350.013,0 -633.776,290.287 -633.776,648.361 0,242.395 130.124,453.557 322.713,564.829 -123.782,-118.344 -201.252,-286.73 -201.252,-473.741z"/>
   <path id="_280733960" class="fil24" d="M466.142 1038.19c0,-358.084 283.731,-648.35 633.744,-648.35 113.121,0 219.158,30.427 311.073,83.4996 -113.271,-108.252 -265.245,-174.609 -432.491,-174.609 -350.013,0 -633.787,290.287 -633.787,648.371 0,242.384 130.124,453.557 322.724,564.818 -123.793,-118.344 -201.263,-286.719 -201.263,-473.73z"/>
   <path id="_280733888" class="fil25" d="M469.829 1040.5c0,-358.063 283.731,-648.35 633.765,-648.35 113.099,0 219.158,30.4377 311.052,83.5103 -113.249,-108.252 -265.245,-174.609 -432.47,-174.609 -350.023,0 -633.808,290.287 -633.808,648.35 0,242.406 130.145,453.589 322.724,564.829 -123.772,-118.333 -201.263,-286.719 -201.263,-473.73z"/>
   <path id="_280733816" class="fil26" d="M473.526 1042.83c0,-358.073 283.72,-648.361 633.765,-648.361 113.099,0 219.158,30.4377 311.041,83.5103 -113.249,-108.241 -265.245,-174.609 -432.47,-174.609 -350.023,0 -633.808,290.287 -633.808,648.361 0,242.395 130.145,453.578 322.724,564.818 -123.761,-118.333 -201.252,-286.719 -201.252,-473.72z"/>
   <path id="_280733744" class="fil27" d="M477.234 1045.13c0,-358.073 283.72,-648.35 633.744,-648.35 113.121,0 219.158,30.427 311.063,83.5103 -113.271,-108.252 -265.245,-174.609 -432.491,-174.609 -350.013,0 -633.797,290.276 -633.797,648.361 0,242.395 130.145,453.557 322.735,564.829 -123.793,-118.344 -201.252,-286.719 -201.252,-473.741z"/>
   <path id="_280733672" class="fil28" d="M480.899 1047.45c0,-358.063 283.752,-648.35 633.787,-648.35 113.099,0 219.137,30.427 311.052,83.4996 -113.26,-108.252 -265.245,-174.609 -432.491,-174.609 -350.023,0 -633.787,290.287 -633.787,648.361 0,242.406 130.124,453.578 322.724,564.829 -123.793,-118.322 -201.285,-286.73 -201.285,-473.73z"/>
   <path id="_280733600" class="fil29" d="M484.586 1049.77c0,-358.084 283.752,-648.361 633.787,-648.361 113.078,0 219.158,30.4377 311.052,83.4996 -113.249,-108.241 -265.245,-174.598 -432.47,-174.598 -350.045,0 -633.808,290.287 -633.808,648.35 0,242.406 130.124,453.589 322.713,564.829 -123.782,-118.333 -201.274,-286.719 -201.274,-473.72z"/>
   <path id="_280733528" class="fil30" d="M488.294 1052.08c0,-358.073 283.752,-648.361 633.787,-648.361 113.078,0 219.147,30.4377 311.052,83.5103 -113.26,-108.252 -265.245,-174.598 -432.491,-174.598 -350.034,0 -633.808,290.276 -633.808,648.35 0,242.395 130.145,453.557 322.745,564.818 -123.793,-118.333 -201.285,-286.73 -201.285,-473.72z"/>
   <path id="_280733504" class="fil31" d="M491.98 1054.39c0,-358.073 283.752,-648.35 633.787,-648.35 113.078,0 219.137,30.427 311.052,83.4996 -113.249,-108.252 -265.245,-174.609 -432.513,-174.609 -350.013,0 -633.776,290.287 -633.776,648.361 0,242.406 130.134,453.578 322.735,564.818 -123.793,-118.333 -201.285,-286.719 -201.285,-473.72z"/>
  </g>
  <path class="fil16 str1" d="M960.143 1481.43c192.966,0 349.4,-156.52 349.4,-349.443 0,-289.846 -349.4,-702.185 -349.4,-702.185 0,0 -349.432,412.339 -349.432,702.185 0,192.923 156.434,349.443 349.432,349.443z"/>
  <path class="fil32 str2" d="M1086.76 1081.82l-55.4694 0 -22.0437 -57.3502 -100.89 0 -20.8077 57.3502 -54.0614 0 98.31 -252.39 53.8894 0 101.072 252.39zm-93.8497 -99.8362l-34.7799 -93.667 -34.092 93.667 68.8718 0z"/>
 </g>
</svg>
